# xmcd
#
# Track frame offsets:
# 182
# 19022
# 29542
# 42062
# 53252
# 64677
# 76540
# 95285
# 110917
# 123412
# 134672
# 143927
# 156945
# 170675
#
# Disc length: 2442 seconds
#
#
# Revision: 0
# Processed by: cddbd v1.5.1PL0 Copyright (c) Steve Scherf et al.
# Submitted via: FreeRIP 2.942 
#
DISCID=b609880e
DTITLE=Various Artist - Square Dances
DYEAR=1900
DGENRE=Folk
TTITLE0=T. Rouse - Orange Blosom Special
TTITLE1=Fiever Busanel - The Lucky's Dance
TTITLE2=P Coenen - Mountain Square
TTITLE3=Troisfontaine - Rodeoliday
TTITLE4=Felix Verburgh - Out of Jail
TTITLE5=Trad P Renier - Chicken Reel
TTITLE6=P Coenen - Dollar Square
TTITLE7=Trad P Renier - Bile them Gabbage down
TTITLE8=P Coenen - Poing Poing Square
TTITLE9=P Coenen - Larry O'Gaff
TTITLE10=P Coenen - River Square
TTITLE11=P Coenen - Jipie hay hey Square
TTITLE12=Felix Verburgh - Hony Tonk Square Dance
TTITLE13=Trad P Renier - Dixie
EXTD=
EXTT0=
EXTT1=
EXTT2=
EXTT3=
EXTT4=
EXTT5=
EXTT6=
EXTT7=
EXTT8=
EXTT9=
EXTT10=
EXTT11=
EXTT12=
EXTT13=
PLAYORDER=
